<?xml version="1.0" encoding="utf-8"?>
<!-- Generator: Adobe Illustrator 28.0.0, SVG Export Plug-In . SVG Version: 6.00 Build 0)  -->
<svg version="1.1" id="Слой_1" xmlns="http://www.w3.org/2000/svg" xmlns:xlink="http://www.w3.org/1999/xlink" x="0px" y="0px"
	 viewBox="0 0 1000 190.3" style="enable-background:new 0 0 1000 190.3;" xml:space="preserve">
<style type="text/css">
	.st0{fill:#1D1D1B;}
	.st1{fill:#1E7F35;}
	.st2{fill:#AEC90B;}
	.st3{fill:#FFCB00;}
</style>
<g>
	<path class="st0" d="M276.5,3.1h83.2c21.7,0,38.9,5.2,51.6,15.6c12.7,10.4,19.1,22.8,19.1,43.4c0,20.2-6.3,34.8-19,45.2
		c-12.6,10.4-31.4,15.6-51.8,15.6h-41.1v64.8h-42V3.1z M318.5,38.5v48.7h32.4c22,0,33.8-6.2,33.8-24.6c0-18.6-11.7-24.1-33.5-24.1
		H318.5z"/>
	<path class="st0" d="M623.8,118c-2.2,24.2-11.1,35.1-25.9,49.4c-14.8,14.3-32.9,22.9-58.7,22.9c-28,0-50.5-6.2-67.6-24.7
		c-17.1-18.5-26.4-43-26.4-73.5c0-28.9,8.6-47.2,25.9-66.4C488.4,6.6,512.1,0,540.8,0c22.9,0,40.7,7.3,56.2,20.3
		c15.5,13,24.1,31,25.7,51.1h-39.9c-2.2-10.6-7-19.7-14.5-25.5C560.8,39.9,551.4,34,540,34c-11.7,0-21.6,3.3-29.7,9.9
		c-8,6.6-12.9,13.9-16.2,23.5c-3.5,10.3-4.1,17.4-4.1,28c0,17.9,3.1,29.7,12.3,41.5c9.2,11.8,21.6,17.7,37.1,17.7
		c21,0,39.8-13.7,42.6-36.6H623.8z"/>
	<polygon class="st0" points="810.4,3.1 762.7,90.1 817,187.3 769.3,187.3 730.3,114.3 722.6,114.1 683.3,187.3 635.8,187.3 
		690.3,90.1 641.8,3.1 689.6,3.1 724.9,69 728.7,69 763.8,3.1 	"/>
	<path class="st0" d="M886.4,72.2h45.1c20.4,0,36.9,1.4,49.6,11.8c12.6,10.4,19,21.2,19,41.4c0,20.6-6.4,36.1-19.1,46.5
		c-12.7,10.4-29.9,15.6-51.6,15.5h-85.7V3.1h143v35.4H886.4V72.2z M954.7,124.8c0-10.4-9.9-21.6-25.9-21.6h-42.4v47.2h42.7
		C946.9,150.5,954.7,137.4,954.7,124.8"/>
	<rect x="128.1" y="3.1" class="st1" width="73.6" height="184.2"/>
	<rect x="54.5" y="3.1" class="st2" width="54.5" height="184.2"/>
	<rect y="3.1" class="st3" width="36.8" height="184.2"/>
	<path class="st1" d="M222.5,21.3c-2.6,0-4.9-0.9-6.7-2.7c-1.9-1.8-2.8-4.1-2.8-6.7c0-2.7,0.9-4.9,2.8-6.7c1.9-1.8,4.1-2.7,6.7-2.7
		c2.6,0,4.8,0.9,6.7,2.7c1.9,1.8,2.8,4,2.8,6.7c0,2.7-0.9,4.9-2.8,6.7C227.4,20.4,225.1,21.3,222.5,21.3 M214.8,11.9
		c0,2.2,0.7,4.1,2.2,5.6c1.5,1.5,3.3,2.2,5.4,2.2c2.1,0,4-0.7,5.4-2.2c1.4-1.5,2.2-3.4,2.2-5.6c0-2.2-0.7-4-2.2-5.5
		c-1.5-1.5-3.3-2.2-5.4-2.2c-2.1,0-4,0.7-5.4,2.2C215.6,7.8,214.8,9.7,214.8,11.9 M225.7,13.7h1.7c-0.2,1.2-0.8,2.2-1.6,2.9
		c-0.8,0.7-1.8,1.1-3,1.1c-1.7,0-3-0.6-4-1.7c-1-1.1-1.5-2.5-1.5-4.1c0-1.7,0.5-3.1,1.5-4.1c1-1.1,2.3-1.6,4-1.6
		c1.2,0,2.3,0.3,3.1,1c0.9,0.7,1.4,1.7,1.6,2.9h-1.7c-0.1-0.7-0.5-1.2-1-1.7c-0.5-0.4-1.2-0.6-2-0.6c-1.1,0-2,0.4-2.6,1.2
		c-0.6,0.8-0.9,1.7-0.9,2.9c0,1.2,0.3,2.2,1,3c0.7,0.8,1.5,1.2,2.7,1.2c0.8,0,1.4-0.2,2-0.6C225.3,15,225.6,14.4,225.7,13.7"/>
</g>
</svg>
