<?xml version="1.0" encoding="utf-8"?>
<!-- Generator: Adobe Illustrator 28.0.0, SVG Export Plug-In . SVG Version: 6.00 Build 0)  -->
<svg version="1.1" id="Слой_1" xmlns="http://www.w3.org/2000/svg" xmlns:xlink="http://www.w3.org/1999/xlink" x="0px" y="0px"
	 viewBox="0 0 1000 430.9927368" enable-background="new 0 0 1000 430.9927368" xml:space="preserve">
<path fill="#19191A" d="M600.6416626,427.328064h-42.8704834V280.7469788h42.8704834v53.1355591h10.7178955
	c21.1283569,0,28.4782104-3.6646118,41.6453247-34.5072327l7.9612427-18.6283264h41.9527588v3.3595581l-11.6367798,28.7058105
	c-7.0423584,17.4055786-16.5351562,31.1477051-26.6404419,39.3934631l42.8704834,71.7626953v3.3595581h-45.0145264
	l-35.8269043-59.8534851h-26.0290527V427.328064z"/>
<path fill="#19191A" d="M375.3559265,427.328064V280.7469788h42.8704529v16.4903259h2.4503784
	c6.1246948-10.0774841,22.6598206-20.460083,44.401947-20.460083c37.9709473,0,59.0992737,31.45401,59.0992737,71.1525879
	v79.3982544h-42.8704834v-79.3982544c0-21.9866943-9.7990112-35.1174622-31.5399475-35.1174622
	c-21.1295471,0-31.2348633,12.2142639-31.5411682,33.2857361v81.2299805H375.3559265z"/>
<path fill="#19191A" d="M201.9188843,282.8849792c18.0677948-4.2748108,39.1961212-5.4963684,52.6694794-5.4963684
	c64.3063202,0,81.4540253,28.3995056,80.8414154,59.5484314v58.9370422l15.3111572,0.3050842v30.5387268
	c-6.736084,1.8317261-14.085968,3.3583984-21.4346619,3.3583984c-18.0665588,0-27.2542114-9.4661255-29.3970642-21.0702515
	h-2.7566833c-11.0229797,15.2687683-30.6210632,21.9866943-49.6065063,21.9866943
	c-29.39711,0-56.6501465-15.8801575-56.6501465-49.4709473c0-37.8668213,34.9080048-47.6392517,69.5108948-47.6392517h35.2155151
	c-0.6126099-18.0169067-21.7421265-24.4297485-45.3208466-24.4297485c-14.0859375,0-31.5399323,2.4431152-44.0944214,7.3292847
	L201.9188843,282.8849792z M233.7663422,381.5217896c0,13.1307678,8.8801422,18.3220215,23.2723846,18.3220215
	c23.2723999,0,38.5835571-13.1307373,38.5835571-38.1719055l-27.2530212-0.3050537
	C242.9527893,361.3668518,233.7663422,368.0847473,233.7663422,381.5217896z"/>
<path fill="#19191A" d="M15.3107748,427.328064V228.8329315h42.8704605v68.4043732h2.7560539
	c6.736805-9.7712097,21.7414055-20.460083,44.401577-20.460083c38.8899536,0,68.593338,31.1489258,68.593338,76.6501465
	c0,45.8062744-29.7033844,76.9552002-71.9617462,76.9552002c-20.5165863,0-36.1337738-7.0242004-47.7699738-17.1017151
	l-3.0622292,14.0472107H15.3107748z M58.1812363,381.5217896c7.9617462,7.9394836,19.5979385,12.8256531,34.2964859,12.8256531
	c26.6409225,0,37.3588409-15.2687683,37.3588409-40.9200745c0-26.8728638-11.6365585-40.3099365-35.2153778-40.3099365
	c-25.4160995,0-36.439949,15.5738525-36.439949,40.920105V381.5217896z"/>
<path fill="#19191A" d="M851.3499146,54.0516968C869.395874,49.7763901,890.5,48.5548439,903.9588013,48.5548439
	c64.2312622,0,81.3595581,28.3999977,80.7481689,59.54842v58.9378891L1000,167.3462372v30.5375366
	c-6.7288208,1.8317108-14.0702515,3.3595734-21.4104004,3.3595734c-18.0460205,0-27.2215576-9.4673157-29.3632202-21.0714264
	h-2.7530518c-11.0108643,15.2687683-30.5858765,21.9866791-49.5495605,21.9866791
	c-29.3632812,0-56.5847778-15.8789368-56.5847778-49.4709473c0-37.8662262,34.868042-47.6381378,69.4309692-47.6381378h35.1743164
	c-0.6113892-18.017189-21.7166748-24.4301453-45.2675171-24.4301453c-14.0702515,0-31.5048828,2.4429779-44.0447998,7.3290558
	L851.3499146,54.0516968z M883.15979,152.6876526c0,13.131958,8.8704834,18.3232422,23.2457275,18.3232422
	c23.2458496,0,38.5387573-13.131958,38.5387573-38.1719208l-27.2214966-0.305069
	C892.3353271,132.533905,883.15979,139.2518158,883.15979,152.6876526z"/>
<path fill="#19191A" d="M722.7119141,198.4939423h-42.8208618V51.9139252h42.8208618v53.1354675h10.7057495
	c21.104126,0,28.4455566-3.6645279,41.5980835-34.5074997l7.9515991-18.6279678h41.9042969v3.3590736l-11.6234741,28.7053261
	c-7.0350952,17.4065399-15.9042969,30.8431015-26.6101685,39.3933411l42.8208618,71.7639389v3.3583374h-44.9613037
	l-35.7869263-59.8535156h-25.9987183V198.4939423z"/>
<path fill="#19191A" d="M497.6864319,198.4939423V0h42.822052v68.4042358h2.4467163
	c6.1174316-10.0773582,22.6331787-20.4601707,44.3499146-20.4601707c37.9273682,0,59.0314941,31.4537621,59.0314941,71.1525421
	v79.3973312h-42.8208618V119.096611c0-21.9870453-9.7869263-35.1181564-31.5036621-35.1181564
	c-21.1052856,0-31.1985474,12.2150116-31.5036011,33.2859497v81.229538H497.6864319z"/>
<path fill="#19191A" d="M333.1888428,125.2045975c0-45.1960068,30.8922424-76.3444214,86.2542419-76.3444214
	c18.9636841,0,37.3147888,3.6645241,48.3268738,7.6343803l-5.5060425,36.3398285
	c-13.763916-5.496727-28.4454956-7.939827-40.374115-7.939827c-32.1161804,0-44.6561584,17.7118607-44.6561584,40.6151276
	c0,22.5980606,12.8462524,39.698555,48.3269043,39.698555c17.1283264,0,30.2808533-3.9697418,41.5968628-9.7711792
	l4.5883484,34.8123322c-10.7058105,5.8026581-30.2808838,10.9939575-52.3026733,10.9939575
	C367.1404419,201.2433472,333.1888428,172.2324524,333.1888428,125.2045975z"/>
<path fill="#19191A" d="M232.6719055,203.3801575c-44.9624634,0-82.5835266-29.3159943-82.5835266-78.17556
	c0-48.8604126,37.6210632-78.1765137,82.5835266-78.1765137c44.656189,0,82.2772522,29.3160973,82.2772522,78.1765137
	C314.9491577,174.0641632,277.3280945,203.3801575,232.6719055,203.3801575z M232.6719055,167.3462372
	c24.1634521,0,38.2336731-18.0169373,38.2336731-42.1416397c0-24.124939-14.0702209-42.1421356-38.2336731-42.1421356
	c-24.4685211,0-38.5387268,18.0171967-38.5387268,42.1421356
	C194.1331787,149.3292999,208.2033844,167.3462372,232.6719055,167.3462372z"/>
<path fill="#19191A" d="M139.4745789,51.9139252v37.8665848H91.147583v108.7134323H48.3266373V89.7805099H0V51.9139252H139.4745789z
	"/>
</svg>
